<svg xmlns="http://www.w3.org/2000/svg" version="1.1" xmlns:xlink="http://www.w3.org/1999/xlink" xmlns:svgjs="http://svgjs.dev/svgjs" width="512" height="512"><svg xmlns="http://www.w3.org/2000/svg" xmlns:xlink="http://www.w3.org/1999/xlink" version="1.1" id="SvgjsSvg1001" x="0px" y="0px" viewBox="0 0 512 512" style="enable-background:new 0 0 512 512;" xml:space="preserve">
<polyline style="fill:#BAB0A8;" points="306.456,413.723 306.456,449.665 205.542,449.665 205.542,413.723 "></polyline>
<path style="fill:#D6CCC5;" d="M205.542,471.09c0,5.545,4.495,10.037,10.037,10.037h80.839c5.544,0,10.038-4.493,10.038-10.037  v-21.425H205.543v21.425H205.542z"></path>
<path style="fill:#3C4956;" d="M281.79,491.86c0-5.928-4.804-10.734-10.732-10.734h-8.191h-9.384h-3.346h-9.194  c-5.928,0-10.733,4.805-10.733,10.734c0,5.927,4.804,10.733,10.733,10.733h9.194h3.346h9.384h8.191  C276.986,502.593,281.79,497.787,281.79,491.86z"></path>
<path style="fill:#485360;" d="M288.619,418.2h17.569c5.926,0,10.732-4.805,10.732-10.733s-4.805-10.734-10.732-10.734h-38.853  h-3.346h-1.479h-3.346h-6.329h-3.346h-1.479h-3.346h-2.431h-14.499h-9.383h-3.347h-9.193c-5.928,0-10.734,4.806-10.734,10.734  s4.805,10.733,10.734,10.733h9.193h3.347h9.383h14.499h2.431h3.346h1.479h3.346h6.329h3.346h1.479h3.346h-0.742"></path>
<rect x="205.544" y="413.727" style="fill:#ADA199;" width="52.628" height="35.937"></rect>
<path style="fill:#C9C2BD;" d="M258.171,471.09v-21.425h-52.628v21.425c0,5.545,4.495,10.037,10.037,10.037h52.629  C262.666,481.126,258.171,476.634,258.171,471.09z"></path>
<path style="fill:#3C4956;" d="M247.709,407.467c0-5.927,4.805-10.734,10.734-10.734h-5.606h-3.346h-1.479h-3.346h-2.431h-14.499  h-9.383h-3.347h-9.193c-5.928,0-10.734,4.806-10.734,10.734s4.805,10.733,10.734,10.733h9.193h3.347h9.383h14.499h2.431h3.346h1.479  h3.346h5.606C252.514,418.2,247.709,413.395,247.709,407.467z"></path>
<path style="fill:#FE9900;" d="M160.435,322.745c0.662,0.789,1.333,1.568,2.015,2.34c0.018,0.021,0.036,0.04,0.054,0.059  c0.674,0.764,1.357,1.518,2.049,2.265c0.022,0.022,0.041,0.044,0.061,0.066c0.692,0.744,1.393,1.481,2.103,2.209  c0.022,0.022,0.042,0.042,0.061,0.064c0.715,0.731,1.436,1.452,2.168,2.165c0.015,0.015,0.031,0.029,0.047,0.044  c0.739,0.72,1.488,1.431,2.244,2.133c0.003,0.004,0.009,0.008,0.013,0.012c0.103,0.1,27.597,26.64,32.462,62.634h4.211h9.674h4.825  h45.254h14.499h9.383h14.499h2.229c4.866-35.994,32.358-62.535,32.462-62.634c0.003-0.004,0.009-0.008,0.012-0.012  c0.758-0.701,1.506-1.413,2.246-2.133c0.015-0.015,0.029-0.029,0.046-0.044c0.73-0.714,1.454-1.435,2.165-2.165  c0.023-0.022,0.043-0.042,0.063-0.064c0.71-0.728,1.412-1.464,2.103-2.209c0.022-0.023,0.04-0.044,0.061-0.066  c0.694-0.746,1.375-1.5,2.05-2.265c0.019-0.019,0.036-0.039,0.055-0.059c0.679-0.772,1.352-1.551,2.014-2.34  c0.009-0.01,0.016-0.019,0.025-0.029c6.733-8.021,12.474-16.899,17.036-26.452c0.017-0.032,0.031-0.067,0.047-0.099  c0.428-0.9,0.846-1.805,1.255-2.716c0.063-0.142,0.122-0.286,0.186-0.427c0.356-0.805,0.705-1.613,1.046-2.425  c0.089-0.215,0.175-0.432,0.264-0.649c0.304-0.742,0.605-1.488,0.897-2.237c0.106-0.269,0.205-0.542,0.307-0.812  c0.268-0.7,0.529-1.403,0.785-2.111c0.112-0.308,0.219-0.619,0.328-0.929c0.237-0.675,0.469-1.351,0.694-2.029  c0.113-0.34,0.222-0.68,0.332-1.02c0.209-0.654,0.417-1.31,0.617-1.969c0.111-0.365,0.218-0.733,0.327-1.099  c0.188-0.639,0.371-1.279,0.548-1.921c0.108-0.389,0.212-0.778,0.317-1.168c0.165-0.625,0.327-1.254,0.483-1.884  c0.101-0.406,0.2-0.815,0.296-1.223c0.15-0.62,0.289-1.241,0.428-1.865c0.094-0.421,0.186-0.841,0.275-1.263  c0.13-0.615,0.252-1.234,0.374-1.854c0.083-0.433,0.168-0.867,0.248-1.301c0.113-0.613,0.219-1.23,0.322-1.845  c0.074-0.443,0.151-0.886,0.22-1.33c0.097-0.615,0.185-1.235,0.274-1.854c0.064-0.447,0.128-0.894,0.188-1.343  c0.082-0.623,0.152-1.249,0.225-1.876c0.051-0.448,0.107-0.895,0.154-1.344c0.066-0.635,0.121-1.274,0.178-1.911  c0.039-0.444,0.083-0.886,0.117-1.332c0.053-0.662,0.092-1.328,0.134-1.994c0.027-0.423,0.058-0.844,0.08-1.268  c0.038-0.735,0.063-1.472,0.088-2.211c0.012-0.358,0.031-0.714,0.041-1.072c0.027-1.098,0.044-2.199,0.044-3.303  c0-8.611-0.874-17.019-2.536-25.139c-0.622-3.045-1.358-6.05-2.197-9.01c-0.562-1.973-1.168-3.927-1.823-5.858  c-16.673-49.268-63.289-84.732-118.186-84.732c-54.898,0-101.514,35.464-118.186,84.732c-0.653,1.932-1.261,3.885-1.822,5.858  c-0.841,2.96-1.575,5.965-2.198,9.01c-1.662,8.12-2.534,16.527-2.534,25.139c0,1.105,0.015,2.205,0.042,3.303  c0.01,0.359,0.029,0.715,0.042,1.072c0.025,0.738,0.05,1.476,0.087,2.211c0.023,0.424,0.054,0.845,0.081,1.268  c0.041,0.665,0.081,1.331,0.133,1.994c0.034,0.446,0.079,0.888,0.119,1.332c0.056,0.638,0.112,1.277,0.179,1.911  c0.047,0.449,0.102,0.896,0.154,1.344c0.072,0.626,0.144,1.253,0.225,1.876c0.059,0.449,0.125,0.896,0.188,1.343  c0.088,0.619,0.177,1.237,0.273,1.854c0.07,0.444,0.147,0.887,0.221,1.33c0.103,0.615,0.208,1.232,0.32,1.845  c0.081,0.434,0.166,0.868,0.25,1.301c0.12,0.619,0.244,1.237,0.373,1.854c0.089,0.423,0.181,0.842,0.275,1.263  c0.138,0.623,0.28,1.244,0.427,1.865c0.098,0.409,0.197,0.817,0.299,1.223c0.157,0.631,0.318,1.259,0.484,1.884  c0.103,0.39,0.208,0.779,0.315,1.168c0.178,0.642,0.36,1.282,0.548,1.921c0.108,0.366,0.217,0.734,0.327,1.099  c0.2,0.66,0.406,1.316,0.618,1.969c0.11,0.34,0.218,0.681,0.331,1.02c0.224,0.678,0.457,1.354,0.693,2.029  c0.109,0.31,0.217,0.621,0.328,0.929c0.253,0.707,0.516,1.411,0.784,2.111c0.102,0.269,0.203,0.542,0.308,0.812  c0.291,0.749,0.592,1.495,0.897,2.237c0.088,0.216,0.175,0.433,0.264,0.649c0.34,0.813,0.69,1.62,1.046,2.425  c0.064,0.141,0.123,0.285,0.188,0.427c0.406,0.911,0.826,1.816,1.254,2.716c0.016,0.032,0.03,0.067,0.046,0.099  c4.562,9.552,10.305,18.431,17.036,26.452C160.418,322.725,160.426,322.735,160.435,322.745z"></path>
<path style="fill:#EF7A06;" d="M275.051,389.188h-4.826h-13.986h-4.211c-4.866-35.994-28.048-62.535-28.15-62.634  c-0.004-0.004-0.009-0.008-0.013-0.012c-0.757-0.701-1.505-1.413-2.244-2.133c-0.016-0.015-0.031-0.029-0.047-0.044  c-0.731-0.714-1.453-1.435-2.168-2.165c-0.02-0.022-0.041-0.042-0.061-0.064c-0.71-0.728-1.411-1.464-2.103-2.209  c-0.02-0.023-0.041-0.044-0.061-0.066c-0.693-0.746-1.375-1.5-2.049-2.265c-0.018-0.019-0.037-0.039-0.054-0.059  c-0.68-0.772-1.352-1.551-2.015-2.34c-0.009-0.01-0.017-0.019-0.025-0.029c-6.733-8.021-12.474-16.899-17.036-26.452  c-0.016-0.032-0.03-0.067-0.046-0.099c-0.428-0.9-0.847-1.805-1.254-2.716c-0.064-0.142-0.124-0.286-0.188-0.427  c-0.356-0.805-0.706-1.613-1.046-2.425c-0.089-0.215-0.176-0.432-0.264-0.649c-0.305-0.742-0.606-1.487-0.897-2.237  c-0.106-0.269-0.206-0.542-0.308-0.812c-0.266-0.7-0.529-1.403-0.784-2.111c-0.112-0.308-0.219-0.619-0.328-0.929  c-0.236-0.675-0.469-1.351-0.693-2.029c-0.113-0.338-0.222-0.68-0.331-1.02c-0.211-0.653-0.417-1.31-0.618-1.969  c-0.11-0.365-0.219-0.733-0.327-1.099c-0.186-0.639-0.37-1.278-0.548-1.921c-0.107-0.389-0.212-0.778-0.316-1.168  c-0.166-0.625-0.328-1.254-0.484-1.884c-0.101-0.406-0.202-0.815-0.299-1.223c-0.147-0.62-0.289-1.241-0.427-1.865  c-0.094-0.421-0.185-0.841-0.275-1.263c-0.129-0.615-0.253-1.234-0.373-1.854c-0.085-0.433-0.17-0.867-0.25-1.301  c-0.112-0.613-0.217-1.23-0.32-1.845c-0.074-0.443-0.151-0.886-0.22-1.33c-0.096-0.615-0.184-1.235-0.274-1.854  c-0.063-0.447-0.128-0.894-0.188-1.343c-0.081-0.623-0.153-1.249-0.225-1.876c-0.052-0.448-0.107-0.895-0.154-1.344  c-0.067-0.635-0.122-1.274-0.179-1.911c-0.04-0.444-0.084-0.886-0.119-1.332c-0.052-0.662-0.092-1.328-0.133-1.994  c-0.027-0.423-0.059-0.844-0.081-1.268c-0.039-0.735-0.063-1.472-0.088-2.211c-0.013-0.358-0.031-0.714-0.042-1.072  c-0.028-1.098-0.043-2.199-0.043-3.303c0-8.611,0.872-17.019,2.534-25.139c0.623-3.045,1.357-6.05,2.198-9.01  c0.561-1.973,1.168-3.927,1.822-5.858c12.001-35.464,39.519-63.774,74.471-76.855c-2.946-0.207-5.914-0.333-8.914-0.333  c-54.898,0-101.514,35.464-118.186,84.732c-0.653,1.932-1.261,3.885-1.822,5.858c-0.841,2.96-1.575,5.965-2.198,9.01  c-1.662,8.12-2.534,16.527-2.534,25.139c0,1.105,0.015,2.205,0.042,3.303c0.01,0.359,0.029,0.715,0.042,1.073  c0.025,0.738,0.05,1.476,0.087,2.211c0.023,0.424,0.054,0.845,0.081,1.268c0.041,0.665,0.081,1.331,0.133,1.994  c0.034,0.446,0.079,0.888,0.119,1.332c0.056,0.638,0.112,1.277,0.179,1.911c0.047,0.449,0.102,0.896,0.154,1.344  c0.072,0.626,0.144,1.253,0.225,1.876c0.059,0.449,0.125,0.896,0.188,1.343c0.088,0.619,0.177,1.237,0.273,1.854  c0.07,0.444,0.147,0.887,0.221,1.33c0.103,0.615,0.208,1.232,0.32,1.845c0.081,0.434,0.166,0.868,0.25,1.301  c0.12,0.619,0.244,1.237,0.373,1.854c0.089,0.423,0.181,0.842,0.275,1.263c0.138,0.623,0.28,1.244,0.427,1.865  c0.098,0.409,0.197,0.817,0.299,1.223c0.157,0.631,0.318,1.259,0.484,1.884c0.103,0.39,0.208,0.779,0.315,1.168  c0.178,0.642,0.36,1.282,0.548,1.921c0.108,0.366,0.217,0.734,0.327,1.099c0.2,0.66,0.406,1.316,0.618,1.969  c0.11,0.34,0.218,0.681,0.331,1.02c0.224,0.678,0.457,1.354,0.693,2.029c0.109,0.31,0.217,0.621,0.328,0.929  c0.253,0.707,0.516,1.411,0.784,2.111c0.102,0.269,0.203,0.542,0.308,0.812c0.291,0.749,0.592,1.495,0.897,2.237  c0.088,0.216,0.175,0.433,0.264,0.649c0.34,0.813,0.69,1.62,1.046,2.425c0.064,0.141,0.123,0.285,0.188,0.427  c0.406,0.911,0.826,1.816,1.254,2.716c0.016,0.032,0.03,0.067,0.046,0.099c4.562,9.552,10.305,18.431,17.036,26.452  c0.008,0.011,0.016,0.019,0.025,0.029c0.662,0.789,1.333,1.568,2.015,2.34c0.018,0.02,0.036,0.04,0.054,0.059  c0.674,0.764,1.357,1.518,2.049,2.265c0.022,0.022,0.041,0.044,0.061,0.066c0.692,0.744,1.393,1.481,2.103,2.209  c0.022,0.022,0.042,0.042,0.061,0.064c0.715,0.731,1.436,1.452,2.168,2.165c0.015,0.015,0.031,0.029,0.047,0.044  c0.739,0.72,1.488,1.431,2.244,2.133c0.003,0.004,0.009,0.008,0.013,0.012c0.103,0.1,27.597,26.64,32.462,62.634h4.211h9.674h4.825  h45.254h14.499h9.383h14.499h2.229c0.347-2.568,0.821-5.08,1.38-7.545h-34.61V389.188z"></path>
<g>
	<path style="fill:#231F20;" d="M387.541,261.042c0.053-0.365,0.105-0.732,0.152-1.093c0.071-0.541,0.135-1.083,0.198-1.627   l0.101-0.88c0.036-0.307,0.072-0.614,0.108-0.943c0.063-0.607,0.116-1.218,0.17-1.828l0.055-0.593   c0.031-0.343,0.064-0.688,0.087-1.009c0.046-0.583,0.083-1.17,0.12-1.756l0.05-0.788c0.02-0.313,0.042-0.624,0.059-0.943   c0.035-0.681,0.059-1.365,0.084-2.048l0.025-0.707c0.011-0.243,0.022-0.485,0.027-0.743c0.029-1.164,0.047-2.333,0.047-3.504   c0-9.001-0.909-18.004-2.7-26.757c-0.653-3.197-1.44-6.426-2.341-9.602c-0.592-2.084-1.244-4.182-1.94-6.24   c-18.262-53.966-68.835-90.225-125.844-90.225s-107.581,36.259-125.843,90.225c-0.695,2.052-1.348,4.152-1.941,6.241   c-0.896,3.155-1.684,6.384-2.341,9.598c-1.79,8.748-2.698,17.752-2.698,26.76c0,1.173,0.016,2.342,0.045,3.528   c0.006,0.25,0.017,0.5,0.028,0.749l0.02,0.529c0.025,0.736,0.051,1.47,0.088,2.201c0.017,0.32,0.038,0.64,0.059,0.959l0.031,0.474   c0.041,0.679,0.083,1.359,0.135,2.033c0.026,0.337,0.057,0.672,0.088,1.007l0.046,0.515c0.057,0.647,0.114,1.293,0.182,1.945   c0.037,0.344,0.077,0.687,0.116,1.029l0.068,0.583c0.069,0.603,0.139,1.203,0.219,1.812c0.045,0.34,0.093,0.679,0.141,1.018   l0.059,0.417c0.094,0.653,0.188,1.309,0.291,1.969c0.057,0.363,0.119,0.728,0.18,1.091l0.054,0.323   c0.11,0.652,0.221,1.305,0.344,1.976c0.075,0.407,0.155,0.813,0.234,1.219l0.029,0.149c0.128,0.66,0.26,1.322,0.399,1.982   c0.095,0.452,0.194,0.901,0.292,1.342c0.146,0.66,0.296,1.318,0.458,2.002c0.105,0.433,0.21,0.869,0.316,1.29   c0.167,0.673,0.34,1.343,0.513,1.996c0.11,0.416,0.222,0.829,0.34,1.257c0.188,0.681,0.383,1.36,0.584,2.052l0.345,1.159   c0.215,0.707,0.435,1.41,0.659,2.102l0.065,0.201c0.097,0.301,0.194,0.604,0.287,0.882c0.239,0.722,0.487,1.442,0.741,2.165   l0.347,0.983c0.271,0.756,0.552,1.507,0.838,2.258l0.328,0.861c0.31,0.799,0.631,1.594,0.952,2.376l0.286,0.698   c0.361,0.863,0.732,1.721,1.126,2.614l0.182,0.417c0.433,0.97,0.88,1.936,1.337,2.896l0.001,0.001   c0.018,0.039,0.038,0.081,0.051,0.108c4.818,10.088,10.92,19.564,18.139,28.164c0.011,0.014,0.023,0.027,0.033,0.041   c0.702,0.834,1.413,1.662,2.173,2.522c0.02,0.023,0.044,0.05,0.07,0.078c0.701,0.793,1.413,1.58,2.199,2.426   c0.714,0.766,1.435,1.526,2.228,2.339c0.025,0.026,0.051,0.053,0.075,0.079c0.759,0.776,1.524,1.541,2.325,2.322   c0.016,0.016,0.044,0.042,0.072,0.069c0.751,0.732,1.512,1.455,2.281,2.169c1.161,1.147,22.911,23.008,29.063,52.332   c-4.682,3.427-7.743,8.945-7.743,15.18c0,7.373,4.273,13.75,10.462,16.835v25.362v21.425c0,9.992,8.13,18.122,18.122,18.122h6.755   c-0.123,0.868-0.209,1.748-0.209,2.649c0,10.376,8.441,18.817,18.817,18.817h30.114c10.376,0,18.816-8.441,18.816-18.817   c0-0.901-0.085-1.782-0.209-2.649h6.753c9.993,0,18.123-8.129,18.123-18.122v-21.425v-25.361   c6.19-3.085,10.463-9.463,10.463-16.836c0-6.233-3.059-11.753-7.741-15.18c6.213-29.604,28.33-51.614,29.068-52.339   c0.781-0.723,1.551-1.457,2.315-2.199c0.001-0.002,0.002-0.003,0.004-0.005c0.019-0.018,0.037-0.035,0.055-0.053   c0.771-0.753,1.536-1.516,2.287-2.286c0.025-0.024,0.047-0.05,0.072-0.073c0.758-0.776,1.506-1.561,2.177-2.286   c0.023-0.023,0.107-0.112,0.128-0.136c0.721-0.777,1.43-1.561,2.133-2.355c0.042-0.046,0.082-0.091,0.114-0.127   c0.722-0.82,1.437-1.649,2.14-2.487v-0.001c0.016-0.018,0.031-0.038,0.048-0.057c7.209-8.593,13.303-18.059,18.114-28.136   c0.017-0.036,0.036-0.071,0.053-0.108c0.455-0.956,0.897-1.915,1.362-2.951l0.174-0.398c0.378-0.854,0.747-1.711,1.106-2.568   l0.289-0.707c0.322-0.787,0.642-1.577,0.947-2.362l0.326-0.858c0.288-0.751,0.568-1.507,0.838-2.256l0.352-1.001   c0.252-0.718,0.499-1.436,0.738-2.157l0.326-1c0.002-0.003,0.031-0.099,0.033-0.103c0.223-0.696,0.444-1.395,0.651-2.084   l0.35-1.177c0.201-0.682,0.395-1.365,0.583-2.047l0.341-1.258c0.174-0.661,0.345-1.325,0.511-1.992   c0.11-0.442,0.218-0.885,0.31-1.281c0.16-0.664,0.31-1.33,0.461-2.003c0.101-0.454,0.2-0.908,0.292-1.342   c0.14-0.66,0.271-1.323,0.403-1.998l0.262-1.373c0.12-0.654,0.234-1.312,0.342-1.961l0.036-0.207   c0.068-0.402,0.135-0.804,0.2-1.217c0.101-0.648,0.195-1.298,0.29-1.973L387.541,261.042z M306.188,404.818   c1.459,0,2.647,1.189,2.647,2.649c0,1.459-1.188,2.648-2.647,2.648h-11.101c-4.465,0-8.084,3.618-8.084,8.084   c0,4.466,3.62,8.084,8.084,8.084h3.285v15.295h-84.745v-15.295h53.708c4.466,0,8.084-3.618,8.084-8.084   c0-4.466-3.618-8.084-8.084-8.084h-61.522c-1.461,0-2.648-1.189-2.648-2.648c0-1.461,1.189-2.649,2.648-2.649H306.188z    M273.705,491.86c0,1.459-1.188,2.648-2.647,2.648h-30.114c-1.461,0-2.648-1.189-2.648-2.648c0-1.461,1.188-2.649,2.648-2.649   h30.114C272.518,489.211,273.705,490.4,273.705,491.86z M298.372,471.09c0,1.077-0.876,1.953-1.954,1.953h-25.36h-30.114h-25.365   c-1.077,0-1.953-0.876-1.953-1.953v-13.341h84.745v13.341H298.372z M372.615,245.67l-0.05,1.293   c-0.022,0.597-0.041,1.192-0.072,1.781l-0.099,1.562c-0.03,0.494-0.061,0.988-0.101,1.503c-0.02,0.261-0.044,0.52-0.07,0.78   l-0.059,0.649c-0.046,0.536-0.095,1.073-0.148,1.586l-0.188,1.638c-0.054,0.459-0.107,0.916-0.167,1.379l-0.176,1.262   c-0.083,0.58-0.166,1.159-0.254,1.727c-0.055,0.344-0.112,0.689-0.17,1.032l-0.038,0.222c-0.096,0.575-0.195,1.149-0.299,1.718   l-0.234,1.219c-0.112,0.574-0.225,1.15-0.35,1.742c-0.081,0.389-0.167,0.776-0.252,1.16c-0.129,0.578-0.258,1.153-0.409,1.779   c-0.087,0.373-0.179,0.746-0.271,1.117c-0.15,0.595-0.301,1.188-0.446,1.741l-0.303,1.117c-0.165,0.599-0.337,1.196-0.506,1.773   l-0.314,1.054c-0.188,0.618-0.382,1.231-0.603,1.923l-0.279,0.856c-0.211,0.635-0.429,1.269-0.653,1.912l-0.301,0.856   c-0.237,0.654-0.478,1.306-0.734,1.973l-0.288,0.758c-0.274,0.703-0.556,1.404-0.829,2.072l-0.254,0.624   c-0.32,0.763-0.649,1.521-0.945,2.197l-0.205,0.467c-0.383,0.855-0.777,1.704-1.179,2.549h0.001   c-0.015,0.03-0.029,0.06-0.043,0.091c-4.23,8.858-9.591,17.181-15.932,24.737c-0.018,0.022-0.036,0.042-0.053,0.064   c-0.604,0.719-1.217,1.428-1.798,2.091c-0.038,0.04-0.074,0.081-0.112,0.122c-0.63,0.714-1.265,1.416-1.846,2.044   c-0.022,0.023-0.106,0.112-0.126,0.135c-0.647,0.695-1.301,1.383-1.964,2.062c-0.004,0.004-0.009,0.01-0.013,0.014   c-0.019,0.019-0.038,0.039-0.057,0.058c-0.663,0.68-1.337,1.351-2.017,2.016c-0.014,0.014-0.027,0.027-0.042,0.04   c-0.691,0.673-1.389,1.338-2.098,1.993c-0.058,0.054-0.114,0.108-0.169,0.162c-1.68,1.623-26.301,25.905-33.609,60.335h-15.079   V271.835c0-3.896,3.169-7.066,7.065-7.066c3.897,0,7.067,3.169,7.067,7.066c0,3.04-1.934,5.731-4.812,6.699   c-4.232,1.422-6.509,6.006-5.088,10.238c1.422,4.233,6.003,6.512,10.239,5.089c9.467-3.181,15.829-12.033,15.829-22.026   c0-12.812-10.423-23.234-23.235-23.234c-12.811,0-23.233,10.422-23.233,23.234v116.815h-28.493V271.835   c0-12.812-10.422-23.234-23.233-23.234s-23.234,10.422-23.234,23.234c0,10.172,6.51,19.071,16.2,22.146   c4.253,1.355,8.801-1.005,10.151-5.26c1.351-4.256-1.006-8.8-5.26-10.151c-2.944-0.935-4.922-3.641-4.922-6.736   c0-3.896,3.169-7.066,7.066-7.066c3.896,0,7.065,3.169,7.065,7.066v116.815h-15.082c-7.38-34.619-32.495-59.26-33.63-60.359   c-0.046-0.045-0.094-0.089-0.141-0.134l0,0c-0.707-0.654-1.407-1.32-2.097-1.993c-0.025-0.025-0.056-0.054-0.085-0.081   c-0.672-0.655-1.334-1.319-1.991-1.99c-0.024-0.025-0.045-0.047-0.057-0.059c-0.665-0.68-1.32-1.37-1.962-2.06   c-0.015-0.017-0.04-0.043-0.065-0.07c-0.645-0.694-1.281-1.397-1.908-2.108c-0.037-0.041-0.073-0.081-0.11-0.122   c-0.619-0.702-1.23-1.413-1.831-2.13c-0.003-0.004-0.008-0.009-0.011-0.013c-0.004-0.005-0.009-0.01-0.013-0.015   c-6.324-7.536-11.673-15.833-15.914-24.699c-0.018-0.04-0.04-0.084-0.061-0.129c-0.4-0.84-0.791-1.685-1.187-2.571l-0.158-0.364   c-0.334-0.755-0.662-1.511-0.978-2.267l-0.25-0.614c-0.285-0.693-0.565-1.387-0.844-2.103l-0.282-0.744   c-0.248-0.651-0.493-1.306-0.737-1.987l-0.3-0.852c-0.221-0.63-0.439-1.261-0.655-1.914l-0.306-0.945   c-0.196-0.608-0.388-1.217-0.572-1.827l-0.305-1.026c-0.176-0.6-0.348-1.201-0.511-1.79l-0.299-1.107   c-0.155-0.583-0.305-1.17-0.454-1.768c-0.095-0.38-0.189-0.763-0.274-1.119c-0.137-0.583-0.271-1.167-0.403-1.763   c-0.087-0.391-0.172-0.783-0.254-1.171c-0.121-0.575-0.236-1.151-0.35-1.741l-0.032-0.163c-0.069-0.352-0.138-0.705-0.199-1.04   c-0.106-0.577-0.204-1.156-0.3-1.728l-0.207-1.245c-0.091-0.58-0.174-1.163-0.254-1.727l-0.177-1.264   c-0.069-0.524-0.129-1.051-0.19-1.578l-0.165-1.439c-0.058-0.558-0.108-1.118-0.157-1.678c0-0.001-0.01-0.108-0.01-0.109   l-0.043-0.475c-0.024-0.255-0.047-0.512-0.068-0.77c-0.046-0.585-0.081-1.174-0.116-1.761c0-0.008-0.006-0.111-0.008-0.117   l-0.031-0.47c-0.016-0.236-0.032-0.471-0.044-0.707c-0.033-0.635-0.055-1.272-0.077-1.909l-0.045-1.157   c-0.027-1.029-0.04-2.062-0.04-3.098c0-7.923,0.798-15.834,2.369-23.518c0.578-2.821,1.269-5.655,2.054-8.422   c0.521-1.832,1.094-3.675,1.703-5.476c16.039-47.396,60.457-79.24,110.529-79.24c50.071,0,94.489,31.844,110.528,79.238   c0.61,1.805,1.185,3.649,1.702,5.474c0.79,2.786,1.482,5.62,2.054,8.426c1.574,7.691,2.371,15.604,2.371,23.518   C372.656,243.618,372.64,244.651,372.615,245.67z"></path>
	<path style="fill:#231F20;" d="M259.551,278.937h-7.103c-4.465,0-8.084,3.618-8.084,8.084c0,4.466,3.62,8.084,8.084,8.084h7.103   c4.465,0,8.084-3.618,8.084-8.084C267.635,282.557,264.015,278.937,259.551,278.937z"></path>
	<path style="fill:#231F20;" d="M58.746,249.236H8.084C3.62,249.236,0,252.854,0,257.32c0,4.466,3.62,8.084,8.084,8.084h50.662   c4.465,0,8.084-3.618,8.084-8.084C66.831,252.854,63.211,249.236,58.746,249.236z"></path>
	<path style="fill:#231F20;" d="M503.916,249.236h-50.662c-4.465,0-8.084,3.618-8.084,8.084c0,4.466,3.62,8.084,8.084,8.084h50.662   c4.466,0,8.084-3.618,8.084-8.084C512,252.854,508.382,249.236,503.916,249.236z"></path>
	<path style="fill:#231F20;" d="M110.804,391.082l-35.824,35.823c-3.157,3.158-3.157,8.276,0,11.433   c1.578,1.578,3.648,2.367,5.716,2.367c2.068,0,4.138-0.789,5.716-2.367l35.824-35.823c3.157-3.158,3.157-8.276,0-11.433   C119.08,387.926,113.961,387.926,110.804,391.082z"></path>
	<path style="fill:#231F20;" d="M425.587,76.299l-35.824,35.824c-3.157,3.158-3.157,8.276,0,11.433   c1.578,1.578,3.648,2.367,5.717,2.367c2.068,0,4.137-0.789,5.716-2.367l35.823-35.824c3.158-3.158,3.158-8.276,0-11.433   C433.863,73.143,428.743,73.143,425.587,76.299z"></path>
	<path style="fill:#231F20;" d="M256,68.15c4.466,0,8.084-3.618,8.084-8.084V9.404c0-4.466-3.618-8.084-8.084-8.084   c-4.465,0-8.084,3.618-8.084,8.084v50.663C247.916,64.532,251.535,68.15,256,68.15z"></path>
	<path style="fill:#231F20;" d="M401.196,391.082c-3.156-3.156-8.276-3.156-11.431,0c-3.158,3.158-3.158,8.276,0,11.433   l35.823,35.823c1.578,1.578,3.647,2.367,5.716,2.367s4.138-0.789,5.716-2.367c3.158-3.158,3.158-8.276,0-11.433L401.196,391.082z"></path>
	<path style="fill:#231F20;" d="M110.805,123.557c1.578,1.578,3.648,2.367,5.716,2.367s4.138-0.789,5.716-2.368   c3.157-3.157,3.157-8.276,0-11.433L86.413,76.3c-3.157-3.156-8.276-3.157-11.432,0.001c-3.157,3.157-3.157,8.276,0,11.433   L110.805,123.557z"></path>
</g>
<g>
</g>
<g>
</g>
<g>
</g>
<g>
</g>
<g>
</g>
<g>
</g>
<g>
</g>
<g>
</g>
<g>
</g>
<g>
</g>
<g>
</g>
<g>
</g>
<g>
</g>
<g>
</g>
<g>
</g>
</svg><style>@media (prefers-color-scheme: light) { :root { filter: none; } }
@media (prefers-color-scheme: dark) { :root { filter: none; } }
</style></svg>